<svg width="21" height="21" viewBox="0 0 21 21" fill="none" xmlns="http://www.w3.org/2000/svg">
<path d="M15.3082 14.7581L15.3082 14.7581L12.8734 12.3247C13.4634 11.6113 13.8199 10.6976 13.8199 9.69949C13.8199 7.42526 11.9703 5.57727 9.69846 5.57727C7.42667 5.57727 5.57705 7.42526 5.57705 9.69949C5.57705 11.9737 7.42667 13.8217 9.69846 13.8217C10.6945 13.8217 11.6097 13.4652 12.3232 12.8751L14.756 15.3084C14.832 15.3844 14.9312 15.4227 15.0321 15.4227C15.1331 15.4227 15.2322 15.3844 15.3082 15.3084C15.4606 15.156 15.4606 14.9105 15.3082 14.7581ZM13.041 9.69949C13.041 11.5422 11.5407 13.0428 9.69846 13.0428C7.85621 13.0428 6.35589 11.5422 6.35589 9.69949C6.35589 7.8568 7.85621 6.35621 9.69846 6.35621C11.5408 6.35621 13.041 7.8549 13.041 9.69949Z" fill="#F7F3E3" stroke="#F7F3E3" stroke-width="0.3"/>
</svg>
